<?xml version="1.0" standalone="no"?>
<!DOCTYPE svg PUBLIC "-//W3C//DTD SVG 20010904//EN"
 "http://www.w3.org/TR/2001/REC-SVG-20010904/DTD/svg10.dtd">
<svg version="1.0" xmlns="http://www.w3.org/2000/svg"
 width="800.000000pt" height="916.000000pt" viewBox="0 0 800.000000 916.000000" color="black"
 preserveAspectRatio="xMidYMid meet">

<g transform="translate(0.000000,916.000000) scale(0.100000,-0.100000)"
stroke="none">
<path d="M3680 8790 l-255 -249 -1377 -3 -1378 -3 -27 -28 -28 -27 -3 -1358
-2 -1358 -281 -279 c-154 -154 -282 -289 -285 -300 -3 -11 -1 -30 3 -41 4 -12
133 -148 286 -304 l277 -282 0 -1317 c0 -1177 2 -1319 16 -1339 38 -55 -34
-52 1364 -52 l1292 0 315 -320 c174 -177 319 -319 323 -318 4 2 152 145 329
318 l322 315 1357 5 1357 5 5 1339 5 1338 293 292 293 291 -293 299 -293 299
-5 1411 -5 1411 -1391 3 -1390 2 -248 250 c-234 236 -251 250 -285 250 -33 -1
-54 -18 -291 -250z m519 -22 c121 -123 217 -225 215 -227 -2 -2 -18 -3 -36 -3
-18 0 -222 1 -453 2 l-420 1 230 224 c126 124 233 225 237 225 5 0 107 -100
227 -222z m-859 -307 c0 -4 -123 -129 -272 -276 -150 -147 -406 -398 -568
-559 -754 -745 -1691 -1669 -1750 -1725 l-65 -61 -3 1301 c-1 954 1 1305 9
1315 10 12 232 14 1330 14 731 0 1319 -4 1319 -9z m1344 -183 c104 -106 343
-348 530 -538 1820 -1841 1997 -2023 2008 -2048 4 -9 7 -267 7 -572 1 -604 4
-572 -53 -623 -12 -10 -190 -186 -396 -390 -317 -314 -815 -806 -2002 -1976
-109 -107 -203 -198 -210 -203 -7 -4 -296 -8 -643 -8 l-630 0 -350 353 c-192
194 -505 510 -695 702 -468 476 -1087 1103 -1352 1371 l-218 220 0 595 0 594
122 119 c108 105 459 451 1868 1842 498 491 750 738 763 746 7 4 248 8 537 8
l525 0 189 -192z m2540 176 c9 -24 7 -2664 -2 -2664 -5 0 -69 62 -143 138
-175 179 -1437 1459 -1881 1907 -385 389 -601 612 -606 626 -2 5 532 9 1311 9
1190 0 1315 -2 1321 -16z m-6614 -3294 c0 -280 -3 -510 -7 -510 -13 0 -498
504 -498 518 0 14 483 502 498 502 4 0 7 -229 7 -510z m6945 208 l247 -251
-248 -248 c-136 -136 -251 -246 -256 -243 -11 7 -10 994 1 994 4 0 120 -113
256 -252z m-5595 -2178 c371 -377 799 -810 950 -963 151 -153 279 -285 283
-293 7 -12 -164 -14 -1241 -14 -957 0 -1251 3 -1260 12 -9 9 -12 307 -12 1282
l1 1271 302 -306 c166 -168 606 -613 977 -989z m5270 11 c0 -687 -3 -1256 -6
-1265 -6 -14 -128 -16 -1285 -16 -703 0 -1279 4 -1279 9 0 4 109 115 243 246
431 425 1572 1550 1942 1917 198 197 366 358 373 358 9 0 12 -256 12 -1249z
m-2750 -1359 c0 -8 -545 -544 -559 -550 -7 -3 -551 541 -551 551 0 4 250 7
555 7 305 0 555 -4 555 -8z"/>
<path d="M3610 7673 l0 -208 -87 -90 c-230 -239 -318 -330 -438 -455 -141
-147 -341 -355 -530 -551 -65 -68 -173 -180 -240 -249 -422 -439 -582 -605
-655 -682 l-83 -88 -223 0 -224 0 0 -270 0 -270 208 0 207 0 90 -86 c172 -165
704 -677 949 -914 71 -69 144 -138 161 -155 18 -16 81 -77 141 -135 60 -58
222 -213 359 -345 138 -132 305 -293 373 -359 l122 -120 0 -138 0 -138 270 0
270 0 0 191 0 192 37 41 c33 37 281 296 633 661 347 360 369 382 741 770 73
77 191 199 260 270 69 72 165 172 214 223 l88 92 224 0 223 0 0 270 0 270
-207 0 -208 0 -95 92 c-191 185 -378 365 -495 477 -66 64 -176 170 -245 236
-69 66 -235 226 -370 355 -135 129 -303 291 -375 360 -71 69 -191 184 -265
255 -74 72 -172 166 -217 211 l-83 80 0 207 0 207 -265 0 -265 0 0 -207z m0
-309 l0 -24 265 0 265 0 0 24 c0 14 3 27 8 30 4 2 50 -37 102 -87 53 -51 205
-198 340 -327 135 -129 306 -293 380 -365 74 -72 198 -191 275 -265 162 -155
298 -287 620 -597 127 -121 261 -250 299 -286 l69 -65 -34 -4 -34 -3 -3 -263
c-2 -260 -2 -264 18 -269 18 -5 8 -19 -77 -107 -54 -55 -202 -209 -328 -340
-414 -432 -689 -717 -881 -916 -56 -58 -121 -125 -144 -150 -194 -205 -464
-479 -469 -475 -3 3 -4 22 -2 41 l3 34 -271 0 -271 0 0 -95 c0 -52 -3 -95 -7
-95 -3 0 -56 49 -117 108 -124 121 -328 317 -516 497 -68 66 -188 181 -265
255 -77 74 -198 191 -270 260 -71 69 -186 180 -255 246 -69 66 -181 174 -249
240 -69 65 -192 184 -274 264 -82 80 -155 149 -163 153 -22 13 -16 25 14 29
l27 3 3 263 c2 253 2 263 -17 270 -17 6 -7 20 77 107 53 55 150 156 216 225
66 69 172 179 236 245 63 66 225 235 360 375 135 140 297 309 360 375 64 66
172 179 241 250 69 72 179 186 246 255 67 69 141 146 164 172 46 49 59 52 59
12z"/>
<path d="M2722 6318 c-9 -9 -12 -296 -12 -1230 0 -1193 0 -1218 19 -1228 13
-7 416 -10 1235 -10 l1216 0 0 1240 0 1240 -1223 0 c-938 0 -1226 -3 -1235
-12z m2438 -1228 l0 -1210 -1212 2 -1213 3 -3 1195 c-1 657 0 1201 3 1208 3 9
256 12 1215 12 l1210 0 0 -1210z"/>
<path d="M3958 6211 c-3 -9 -118 -129 -791 -824 -143 -147 -269 -279 -280
-294 l-21 -26 160 -155 c87 -85 218 -212 289 -281 260 -251 423 -409 556 -539
75 -72 141 -132 146 -132 5 0 27 19 47 43 21 23 99 105 174 182 471 483 886
914 890 925 2 4 -12 20 -30 35 -34 28 -543 519 -994 958 -114 111 -138 129
-146 108z m176 -431 c188 -50 345 -176 434 -349 57 -111 76 -205 70 -344 -7
-158 -47 -263 -149 -394 -81 -104 -232 -200 -369 -234 -90 -22 -252 -17 -340
10 -199 62 -340 180 -425 356 -55 116 -65 160 -65 296 0 175 48 309 155 438
165 198 440 286 689 221z"/>
<path d="M3841 5739 c-63 -12 -172 -55 -209 -82 l-30 -23 48 -17 c56 -20 60
-20 60 -7 0 6 -5 10 -11 10 -15 0 -39 26 -32 34 10 10 51 7 59 -5 3 -6 17 -9
30 -6 13 2 21 0 18 -4 -3 -5 -14 -9 -25 -9 -20 0 -26 -15 -9 -25 16 -10 69 17
63 32 -3 8 3 13 15 13 15 0 19 -5 15 -20 -4 -14 0 -20 11 -20 9 0 16 8 16 20
0 17 7 20 40 20 31 0 47 -6 66 -27 l24 -26 -30 -15 c-23 -11 -34 -12 -43 -3
-8 8 -8 11 1 11 7 0 12 7 12 15 0 29 -70 12 -96 -23 -8 -11 -13 -12 -18 -3 -5
8 -18 5 -47 -11 -44 -24 -45 -37 -6 -56 15 -7 27 -20 27 -29 0 -14 4 -13 20 5
12 12 25 22 30 22 6 0 10 11 10 24 0 14 4 27 8 30 15 9 52 -6 52 -21 0 -9 6
-12 18 -9 12 4 21 -3 31 -25 7 -16 12 -32 10 -33 -12 -10 -59 -14 -64 -6 -3 5
-23 -7 -45 -28 -21 -20 -52 -47 -69 -60 -17 -13 -31 -29 -31 -36 0 -7 -11 -19
-25 -26 -16 -8 -25 -22 -25 -37 0 -26 -15 -31 -24 -8 -9 25 -91 20 -116 -7
-27 -30 -27 -78 1 -78 11 0 29 5 40 10 16 9 19 7 19 -10 0 -11 6 -20 14 -20 9
0 16 -12 18 -27 2 -23 8 -29 36 -31 17 -2 32 1 32 6 0 17 31 22 53 10 12 -7
33 -11 45 -9 15 2 29 -5 39 -18 8 -12 23 -21 34 -21 12 0 23 -10 30 -27 13
-34 26 -43 65 -43 19 0 39 -9 54 -25 22 -23 22 -25 6 -49 -9 -14 -16 -39 -16
-55 0 -34 -23 -61 -51 -61 -14 0 -19 -7 -19 -25 0 -35 -45 -101 -79 -114 -34
-15 -34 -50 0 -114 14 -26 4 -33 -26 -17 -34 18 -58 58 -58 95 0 16 -4 35 -8
41 -5 6 -12 50 -15 98 -6 79 -9 89 -30 98 -13 6 -36 29 -50 52 -30 45 -33 92
-8 111 23 17 13 49 -16 53 -14 2 -33 12 -42 22 -10 10 -26 21 -38 25 -11 3
-20 11 -20 16 0 5 -15 9 -34 9 -32 0 -61 20 -61 44 0 17 -39 95 -47 96 -13 0
-9 -30 8 -55 9 -14 12 -25 6 -25 -18 0 -42 42 -42 72 0 16 -4 28 -9 28 -5 0
-11 8 -13 18 -2 10 -12 -5 -23 -38 -16 -45 -20 -81 -19 -195 0 -126 3 -146 26
-206 63 -160 167 -275 316 -349 158 -78 353 -85 517 -17 62 26 148 83 197 131
32 31 37 41 31 69 -3 17 -10 36 -14 42 -5 5 -9 19 -9 32 0 12 -5 33 -11 46 -8
18 -8 30 0 46 9 17 8 29 -9 60 -11 22 -20 53 -20 68 0 24 -6 30 -37 40 -24 7
-44 8 -55 2 -36 -20 -75 -10 -107 26 -32 37 -38 59 -21 85 5 9 5 19 -2 27 -8
10 -4 18 13 33 13 10 27 19 31 20 3 0 11 13 16 29 10 29 13 30 123 47 30 5 37
3 41 -14 6 -23 64 -38 84 -21 11 9 20 7 39 -5 25 -16 57 -21 68 -10 11 12 -16
54 -36 54 -10 0 -21 9 -24 20 -7 25 -19 26 -32 3 -9 -17 -10 -17 -17 2 -16 45
-64 75 -64 40 0 -8 3 -15 8 -15 4 0 13 -4 20 -8 13 -9 6 -42 -9 -42 -4 0 -6 6
-3 14 7 17 -33 46 -63 46 -13 0 -30 -12 -43 -31 -29 -40 -73 -38 -78 4 -3 25
-1 27 33 27 32 0 35 2 29 24 -4 19 -1 25 20 30 14 3 26 10 26 15 0 5 25 13 55
16 62 8 75 19 51 43 -15 15 -16 15 -16 0 0 -24 -23 -28 -58 -11 -38 19 -40 30
-7 43 32 12 25 28 -33 66 -145 97 -320 135 -481 103z m448 -234 l20 -35 -24 0
c-18 0 -23 4 -19 15 4 8 1 21 -5 29 -6 7 -8 16 -4 19 9 10 9 10 32 -28z m-39
-10 c-7 -8 -16 -15 -21 -15 -5 0 -6 7 -3 15 4 8 13 15 21 15 13 0 13 -3 3 -15z
m-286 -41 c23 -9 20 -23 -4 -17 -11 3 -20 9 -20 14 0 11 3 11 24 3z"/>
<path d="M3600 5600 c-12 -8 -12 -10 2 -15 20 -8 41 2 33 16 -8 11 -16 11 -35
-1z"/>
<path d="M3600 5560 c0 -5 7 -10 15 -10 8 0 15 5 15 10 0 6 -7 10 -15 10 -8 0
-15 -4 -15 -10z"/>
<path d="M3660 5490 c0 -5 5 -10 10 -10 6 0 10 5 10 10 0 6 -4 10 -10 10 -5 0
-10 -4 -10 -10z"/>
<path d="M3699 5458 c0 -2 -2 -19 -4 -38 l-5 -35 25 29 c25 31 24 46 -1 46 -8
0 -14 -1 -15 -2z"/>
<path d="M3735 5420 c4 -6 1 -17 -5 -25 -10 -12 -9 -15 4 -15 9 0 16 5 16 10
0 6 9 10 20 10 21 0 27 14 11 24 -5 4 -12 0 -14 -6 -4 -10 -6 -10 -6 0 -1 6
-8 12 -17 12 -8 0 -12 -5 -9 -10z"/>
<path d="M4520 5384 c0 -8 5 -12 10 -9 6 4 8 11 5 16 -9 14 -15 11 -15 -7z"/>
<path d="M2800 1086 l0 -45 48 -3 47 -3 3 -334 c1 -230 -1 -338 -9 -347 -6 -7
-27 -14 -47 -16 -36 -3 -37 -4 -37 -43 l0 -40 163 -3 162 -2 0 44 0 45 -42 3
-43 3 0 150 0 150 25 3 c35 5 100 -16 139 -45 37 -29 101 -123 154 -229 56
-111 113 -148 193 -122 36 12 39 16 42 55 3 39 1 43 -32 58 -37 18 -77 72
-140 187 -22 41 -58 86 -90 115 l-54 47 41 47 c23 25 67 86 97 134 70 112 110
155 144 155 24 0 26 4 26 40 l0 40 -140 0 -140 0 0 -40 c0 -33 3 -40 20 -40
37 0 29 -20 -70 -167 -25 -37 -60 -77 -78 -90 -37 -25 -118 -41 -133 -26 -5 5
-8 66 -7 139 l3 129 38 3 c37 3 37 4 37 48 l0 44 -160 0 -160 0 0 -44z"/>
<path d="M3849 1111 c-30 -24 -33 -89 -5 -120 37 -41 132 -35 156 10 20 36 12
86 -16 108 -35 27 -103 28 -135 2z"/>
<path d="M4240 1110 c-24 -24 -28 -90 -5 -90 28 0 93 -78 139 -167 41 -79 125
-183 148 -183 4 0 8 -7 8 -15 0 -8 -3 -15 -7 -15 -12 0 -97 -109 -161 -207
-60 -91 -74 -103 -118 -103 -22 0 -24 -4 -24 -45 l0 -45 140 0 140 0 0 45 c0
37 -3 45 -16 43 -33 -6 -23 21 44 123 75 114 110 142 195 154 l48 7 -3 -138
-3 -139 -36 -3 c-35 -3 -37 -5 -42 -45 -4 -27 -1 -44 6 -49 7 -4 78 -8 158 -8
l147 0 4 29 c8 52 -6 71 -53 71 l-42 0 8 332 c4 200 11 338 17 346 6 6 28 12
49 12 l39 0 0 43 0 44 -156 6 c-86 4 -160 4 -165 1 -5 -3 -9 -23 -9 -45 0 -38
1 -39 34 -39 53 0 57 -12 54 -166 l-3 -139 -37 -3 c-54 -5 -119 28 -163 81
-21 25 -66 99 -99 164 -45 86 -70 123 -95 140 -44 30 -113 31 -141 3z"/>
<path d="M3841 394 c-42 -35 -44 -92 -5 -123 39 -31 107 -29 139 4 55 54 10
145 -70 145 -21 0 -45 -9 -64 -26z"/>
</g>
</svg>
